<?xml version="1.0" encoding="UTF-8"?>
<!DOCTYPE svg PUBLIC "-//W3C//DTD SVG 1.1//EN" "http://www.w3.org/Graphics/SVG/1.1/DTD/svg11.dtd">
<!-- Creator: CorelDRAW 2018 (评估版) -->
<svg xmlns="http://www.w3.org/2000/svg" xml:space="preserve" width="169.333mm" height="169.333mm" version="1.1" style="shape-rendering:geometricPrecision; text-rendering:geometricPrecision; image-rendering:optimizeQuality; fill-rule:evenodd; clip-rule:evenodd"
viewBox="0 0 16933.32 16933.32"
 xmlns:xlink="http://www.w3.org/1999/xlink">
 <defs>
  <style type="text/css">
   <![CDATA[
    .str0 {stroke:#FEFEFE;stroke-width:1405.46;stroke-linejoin:bevel;stroke-miterlimit:22.9256}
    .fil1 {fill:none}
    .fil0 {fill:#FF9900}
    .fil2 {fill:white;fill-rule:nonzero}
   ]]>
  </style>
 </defs>
 <g id="图层_x0020_1">
  <metadata id="CorelCorpID_0Corel-Layer"/>
  <rect class="fil0" x="660.38" y="154.65" width="16086.67" height="16086.7"/>
  <path class="fil1 str0" d="M4737.17 12985.14c-1595.35,-1595.36 -2218.42,-3935.52 -1634.47,-6114.83 583.94,-2179.28 2286.13,-3881.51 4465.39,-4465.44 2146.44,-575.14 4434.47,35.08 6027.24,1577.91"/>
  <g>
   <path class="fil2" d="M13405.07 13378.87l1405.46 0 -702.73 0 -0.28 702.73 -1.98 0 -5.35 0 -10.43 0 -17.19 0 -25.66 0 -35.79 0 -47.64 0 -61.17 0 -76.39 0 -93.3 0 -111.9 0 -132.21 0 -154.18 0 -177.87 0 -203.23 0 -230.3 0 -259.04 0 -289.49 0 -321.62 0 -355.45 0 -390.96 0 -428.18 0 -467.07 0 -507.66 0 -549.94 0 -593.92 0 -639.58 0 -686.94 0 -735.98 0 -786.72 0 -839.15 0 0 -1405.46 839.15 0 786.72 0 735.98 0 686.94 0 639.58 0 593.92 0 549.94 0 507.66 0 467.07 0 428.18 0 390.96 0 355.45 0 321.62 0 289.49 0 259.04 0 230.3 0 203.23 0 177.87 0 154.18 0 132.21 0 111.9 0 93.3 0 76.39 0 61.17 0 47.64 0 35.79 0 25.66 0 17.19 0 10.43 0 5.35 0 1.98 0 0.28 702.73 -702.73 0zm1405.46 -9236.65l0 9236.65 -1405.46 0 0 -9236.65 1405.46 0z"/>
  </g>
 </g>
</svg>
